<svg width="16" height="16" viewBox="0 0 16 16" fill="none" xmlns="http://www.w3.org/2000/svg">
<path d="M8.32379 16C8.06144 15.9429 7.79117 15.9362 7.52882 15.8717C5.68517 15.4193 4.38965 13.7881 4.44623 11.9816C4.50605 10.0672 5.87292 8.50958 7.79117 8.17948C8.87696 7.9927 9.87662 8.21487 10.7891 8.81305C10.868 8.86492 10.9202 8.90452 11.0132 8.8134C11.9855 7.85954 12.9639 6.91163 13.9405 5.96196C13.96 5.94304 13.9765 5.92061 14.0176 5.8726C13.8511 5.8726 13.716 5.8726 13.5808 5.8726C13.2266 5.87225 12.872 5.87891 12.5181 5.8698C12.2057 5.86174 11.9642 5.60908 11.9646 5.31122C11.965 5.01125 12.2046 4.75649 12.5185 4.75438C13.4911 4.74773 14.4641 4.74983 15.4367 4.75298C15.7279 4.75403 15.8847 4.94011 16 5.17175C16 6.19955 16 7.22771 16 8.25552C15.9892 8.26884 15.9751 8.2804 15.9683 8.29547C15.8306 8.58282 15.5838 8.72229 15.3113 8.66587C15.0248 8.6063 14.8486 8.37817 14.8472 8.06173C14.8457 7.76983 14.8468 7.47792 14.8468 7.18566C14.8468 7.02622 14.8468 6.86677 14.8468 6.70733C14.8277 6.69751 14.8083 6.68805 14.7892 6.67824C14.7506 6.7301 14.7189 6.78792 14.6731 6.83278C13.7445 7.73829 12.8161 8.64415 11.8813 9.5437C11.7689 9.65198 11.748 9.71506 11.8453 9.85488C13.3895 12.0769 12.2403 15.1085 9.5858 15.8395C9.26615 15.9275 8.93714 15.9481 8.61244 15.9996C8.51623 16 8.42001 16 8.32379 16ZM11.3869 12.0416C11.3822 10.4944 10.0928 9.23567 8.51479 9.23742C6.9061 9.23917 5.61995 10.493 5.62175 12.057C5.62355 13.5985 6.92952 14.8495 8.53028 14.8436C10.1004 14.8373 11.3916 13.5708 11.3869 12.0416Z" fill="white"/>
<path d="M8.22906 0.000373683C8.53204 0.0579209 8.84161 0.0691313 9.14381 0.142C11.1195 0.618072 12.5336 2.40764 12.4401 4.32389C12.3384 6.40567 10.8108 8.07305 8.72678 8.36265C7.60566 8.51848 6.56833 8.28717 5.63147 7.67171C5.49841 7.58427 5.43595 7.60221 5.33199 7.70385C4.66048 8.36003 3.98392 9.01174 3.3031 9.65933C3.2003 9.75686 3.17858 9.81404 3.2969 9.91904C3.54828 10.1429 3.78569 10.3813 4.02582 10.6167C4.29466 10.8805 4.30668 11.2404 4.05957 11.4837C3.80703 11.7322 3.42608 11.7224 3.1456 11.4567C2.89694 11.221 2.6475 10.9855 2.40698 10.7419C2.31931 10.653 2.26849 10.6537 2.17965 10.7415C1.82819 11.0898 1.46935 11.431 1.11168 11.7733C0.818399 12.0539 0.443269 12.0756 0.183355 11.8297C-0.081215 11.5793 -0.0575511 11.2131 0.241932 10.9224C0.283053 10.8828 0.324174 10.8432 0.365295 10.8035C0.680683 10.4997 0.992969 10.193 1.31379 9.89438C1.40069 9.81366 1.39991 9.76845 1.3134 9.68885C1.06086 9.45679 0.81646 9.21652 0.571675 8.97699C0.294303 8.70569 0.283829 8.34135 0.542968 8.09659C0.796675 7.85668 1.16793 7.86789 1.44336 8.12835C1.68775 8.35966 1.93487 8.58873 2.16763 8.83088C2.27159 8.93887 2.32552 8.92131 2.42327 8.82602C3.10448 8.16161 3.78957 7.50056 4.48048 6.84512C4.58289 6.74797 4.57397 6.69079 4.49832 6.58467C2.87289 4.29885 3.93815 1.17075 6.65251 0.251489C7.01406 0.129294 7.38493 0.0523156 7.7682 0.0302683C7.83182 0.0265315 7.89467 0.0104631 7.95751 0C8.04829 0.000373683 8.13868 0.000373683 8.22906 0.000373683ZM11.1762 4.23159C11.1816 2.57953 9.79437 1.23988 8.07273 1.2339C6.37902 1.2283 4.97703 2.56645 4.97082 4.19497C4.96462 5.84926 6.34022 7.20386 8.0351 7.21208C9.77187 7.21993 11.1708 5.89261 11.1762 4.23159Z" fill="white"/>
</svg>
