<svg width="70" height="100" viewBox="0 0 70 100" fill="none" xmlns="http://www.w3.org/2000/svg">
<path d="M9.92993 34.1604H46.96C53.71 34.1604 59.1899 39.1204 59.1899 45.2404C59.1899 51.3604 53.72 56.3204 46.96 56.3204H13.21C8.08996 56.3204 3.93994 60.0805 3.93994 64.7205C3.93994 69.3605 8.08996 73.1204 13.21 73.1204H48.3199C58.9399 73.1204 66.4399 84.0005 66.4399 95.7205" stroke="#073E0D" stroke-width="7" stroke-miterlimit="10" stroke-linecap="round" stroke-linejoin="round"/>
<path d="M32.9299 55.9104V34.8804" stroke="#073E0D" stroke-width="7" stroke-miterlimit="10" stroke-linecap="round" stroke-linejoin="round"/>
<path d="M48.45 11.2104C48.33 14.6104 46.8699 17.9803 44.0399 20.6003C38.0499 26.1703 28.1999 26.2903 22.0499 20.8503C18.5899 17.7903 17.0399 13.6305 17.4099 9.59045" stroke="#073E0D" stroke-width="7" stroke-miterlimit="10" stroke-linecap="round" stroke-linejoin="round"/>
<path d="M32.8199 4.36035L33.0999 24.4304" stroke="#073E0D" stroke-width="7" stroke-miterlimit="10" stroke-linecap="round" stroke-linejoin="round"/>
</svg>
