<svg width="85" height="74" viewBox="0 0 85 74" fill="none" xmlns="http://www.w3.org/2000/svg">
<path d="M13.1799 4.43018H71.1799" stroke="#073E0D" stroke-width="7" stroke-miterlimit="10" stroke-linecap="round" stroke-linejoin="round"/>
<path d="M3.67993 36.4302H80.6799" stroke="#073E0D" stroke-width="7" stroke-miterlimit="10" stroke-linecap="round" stroke-linejoin="round"/>
<path d="M42.1799 47.9302L31.9299 69.9302H52.9299L42.1799 47.9302ZM42.1799 47.9302V4.78015" stroke="#073E0D" stroke-width="7" stroke-miterlimit="10" stroke-linecap="round" stroke-linejoin="round"/>
<path d="M17.6799 25.0702C20.2867 25.0702 22.3999 22.9569 22.3999 20.3502C22.3999 17.7434 20.2867 15.6302 17.6799 15.6302C15.0731 15.6302 12.9599 17.7434 12.9599 20.3502C12.9599 22.9569 15.0731 25.0702 17.6799 25.0702Z" fill="#073E0D"/>
<path d="M66.6799 25.0702C69.2867 25.0702 71.3999 22.9569 71.3999 20.3502C71.3999 17.7434 69.2867 15.6302 66.6799 15.6302C64.0731 15.6302 61.9599 17.7434 61.9599 20.3502C61.9599 22.9569 64.0731 25.0702 66.6799 25.0702Z" fill="#073E0D"/>
</svg>
