<svg width="79" height="108" viewBox="0 0 79 108" fill="none" xmlns="http://www.w3.org/2000/svg">
<path d="M39.84 14.3298C50.27 14.3298 58.7199 23.3998 58.7199 34.5898C58.7199 45.7798 50.27 54.8498 39.84 54.8498" stroke="#073E0D" stroke-width="7" stroke-miterlimit="10" stroke-linecap="round" stroke-linejoin="round"/>
<path d="M59.2599 3.56982C68.5999 9.62982 74.8499 20.6398 74.8499 33.2098C74.8499 43.8098 70.4099 53.2898 63.4199 59.6398" stroke="#073E0D" stroke-width="7" stroke-miterlimit="10" stroke-linecap="round" stroke-linejoin="round"/>
<path d="M19.77 104.49C10.43 98.4298 4.17993 87.4198 4.17993 74.8498C4.17993 64.2498 8.61992 54.7698 15.6099 48.4198" stroke="#073E0D" stroke-width="7" stroke-miterlimit="10" stroke-linecap="round" stroke-linejoin="round"/>
<path d="M39.84 95.3699C29.41 95.3699 20.96 86.2999 20.96 75.1099C20.96 63.9199 29.41 54.8499 39.84 54.8499" stroke="#073E0D" stroke-width="7" stroke-miterlimit="10" stroke-linecap="round" stroke-linejoin="round"/>
<path d="M24.5399 40.6498L36.83 29.9998" stroke="#073E0D" stroke-width="7" stroke-miterlimit="10" stroke-linecap="round" stroke-linejoin="round"/>
<path d="M42.5399 76.6498L54.83 65.9998" stroke="#073E0D" stroke-width="7" stroke-miterlimit="10" stroke-linecap="round" stroke-linejoin="round"/>
</svg>
