<svg width="317" height="69" viewBox="0 0 317 69" fill="none" xmlns="http://www.w3.org/2000/svg">
<path d="M26.7415 36.1717C26.0614 35.1177 25.391 34.0732 24.711 33.0671C21.9429 28.9085 17.8436 27.7012 14.8457 26.8101C12.9014 26.2351 11.7137 25.8519 11.7137 25.1236C11.7137 24.4912 14.4051 23.5234 16.7709 22.6611C23.4562 20.2464 34.6528 16.2028 34.6528 5.82548C34.6528 3.8995 34.0015 1.94477 33.082 1.06323L32.948 0.948242H26.5882L27.7759 1.81062C28.6092 2.41429 29.2413 4.18696 29.2413 5.93088C29.2413 14.1043 21.7035 17.7551 16.2058 20.4189C12.7673 22.0861 10.2866 23.2839 10.2866 25.1332C10.2866 26.5705 11.2827 27.1359 12.6524 27.9312C14.4051 28.9469 17.039 30.4704 19.989 34.8781C21.6364 37.3599 22.9869 39.4296 24.1171 41.1639C28.3027 47.5934 29.4233 49.3182 31.3772 49.3182H39.1066V47.8905H38.6277C34.308 47.8905 30.4577 41.9305 26.7415 36.1717Z" fill="white"/>
<path d="M9.34804 35.6638V14.6122C9.34804 4.83854 9.80778 2.38554 13.2271 2.38554H13.706V0.948242H0V2.38554H0.478896C3.90779 2.38554 4.35795 4.84812 4.35795 14.6122V35.6638C4.35795 45.4375 3.89821 47.8905 0.478896 47.8905H0V49.3182H13.706V47.8905H13.2271C9.80778 47.8905 9.34804 45.4279 9.34804 35.6638Z" fill="white"/>
<path d="M67.5528 43.5306C67.5528 40.9051 67.5433 39.4582 67.5241 38.0688C67.5145 36.804 67.505 35.5871 67.505 33.5749C67.505 30.8248 67.505 25.6985 63.1374 25.6985C62.1701 25.6985 61.3751 26.2063 61.3751 26.8387V27.2028L61.7295 27.2987C62.0264 27.3753 62.1796 28.0077 62.1796 29.1576C62.1796 41.9208 56.4042 47.7371 51.0501 47.7371C46.7592 47.7371 43.7517 44.3642 43.7517 39.5349C43.7517 28.6305 52.2761 26.8483 59.1339 25.4206C63.6738 24.472 67.5912 23.6575 67.5912 20.2846C67.5912 16.0781 60.1587 13.8359 54.7855 13.8359C46.4527 13.8359 41.2711 16.7489 41.2711 21.4249C41.2711 23.8587 42.9472 25.6985 45.1597 25.6985C46.242 25.6985 47.3243 25.1619 47.9277 24.3282C48.3779 23.7054 48.4928 22.9963 48.2725 22.316L48.0714 21.5494L47.5254 22.0956C47.4775 22.1052 47.2956 22.0669 47.0753 21.8944C46.8741 21.7315 46.3952 21.2428 46.3952 20.2846C46.3952 16.586 50.7245 15.2637 54.7759 15.2637C58.54 15.2637 62.5915 16.8064 62.5915 20.1888C62.5915 22.9963 58.9327 23.9066 54.2874 25.066C47.3051 26.81 38.6084 28.9755 38.6084 39.257C38.6084 45.6386 43.2537 50.2667 49.6517 50.2667C57.2374 50.2667 60.5418 44.7187 62.3041 38.7683V42.9556C62.3041 46.6447 64.4017 49.3181 67.2847 49.3181H71.1254V47.8904H70.6465C70.158 47.8904 67.5528 47.6796 67.5528 43.5306Z" fill="white"/>
<path d="M104.092 35.6649V24.8947C104.092 17.5645 99.6771 13.8467 90.9612 13.8467C89.7065 13.8467 87.7717 14.0479 85.7221 14.2587C83.2988 14.5078 80.5404 14.7953 78.4428 14.7953H72.562V16.223H73.0409C76.4698 16.223 76.92 18.6856 76.92 28.4497V35.6553C76.92 45.429 76.4602 47.882 73.0409 47.882H72.562V49.3097H86.3159V47.882H85.837C82.4081 47.882 81.9579 45.4194 81.9579 35.6553V16.7021C84.3141 15.9068 86.7373 15.466 88.8253 15.466C91.6125 15.466 99.0066 15.466 99.0066 25.8913C99.0066 25.8913 99.0545 34.2372 99.0545 35.6553C99.0545 45.429 98.5948 47.882 95.1755 47.882H94.6966V49.3097H108.45V47.882H107.972C104.552 47.8915 104.092 45.429 104.092 35.6649Z" fill="white"/>
<path d="M129.828 13.8467C125.422 13.8467 121.639 15.7439 118.794 19.3467V14.7953H109.398V16.223H109.877C113.306 16.223 113.756 18.6856 113.756 28.4497V55.3368C113.756 65.1104 113.297 67.5634 109.877 67.5634H109.398V69.0007H123.152V67.5634H122.673C119.245 67.5634 118.794 65.1008 118.794 55.3368V48.6868C121.543 49.3193 122.415 49.3193 124.714 49.3193C136.552 49.3193 144.195 41.347 144.195 29.0246C144.195 19.9504 138.42 13.8467 129.828 13.8467ZM127.798 15.9451C136.159 15.9451 139.119 23.5245 139.119 30.0211C139.119 41.2033 131.504 47.8915 124.148 47.8915C122.242 47.8915 120.356 47.4699 118.794 46.7034V28.1239C118.794 17.1333 125.087 15.9451 127.798 15.9451Z" fill="white"/>
<path d="M165.669 13.8467C155.813 13.8467 148.937 21.3398 148.937 32.0621C148.937 42.7843 155.823 50.2775 165.669 50.2775C175.582 50.2775 182.497 42.7843 182.497 32.0621C182.497 21.3398 175.573 13.8467 165.669 13.8467ZM173.715 28.785C171.473 19.663 159.53 21.6273 157.308 29.6474C156.934 30.9985 158.581 30.1265 158.821 29.2641C159.673 26.2075 162.633 24.454 165.698 24.6456C171.09 24.981 172.623 29.3599 172.604 34.0455C172.584 40.59 167.345 44.9403 161.886 47.7286C161.8 47.7766 161.713 47.8436 161.637 47.9299C160.018 47.24 158.61 46.1189 157.461 44.6241C163.284 43.8671 167.479 42.0561 170.132 36.144C171.234 33.691 172.307 31.1614 170.276 28.9671C167.46 25.9296 164.711 27.7789 162.173 29.8678C159.214 32.3016 154.942 35.1091 154.233 28.9767C154.195 28.67 154.195 28.3634 154.204 28.076C154.271 27.5969 154.338 27.1273 154.425 26.677C155.268 23.7928 158.294 21.8477 161.11 21.129C165.813 19.9217 170.908 20.8607 173.59 25.1534C176.128 29.2162 176.712 34.6396 176.492 39.4306C174.73 45.1894 170.822 48.7443 165.679 48.7443C164.98 48.7443 164.309 48.6677 163.658 48.5431C170.812 44.3174 175.87 37.5813 173.715 28.785ZM156.292 42.8706C154.99 40.4942 154.185 37.4855 153.974 33.9689C154.75 34.745 155.928 35.1954 157.624 35.1379C159.204 35.09 160.248 34.218 161.369 33.2407C161.848 32.8286 162.03 32.1579 162.451 31.698C165.774 28.0951 169.768 29.7815 169.309 34.6971C168.696 41.165 161.273 42.3723 156.331 42.861C156.312 42.861 156.302 42.8706 156.292 42.8706ZM165.669 15.3702C172.326 15.3702 176.923 21.2823 177.46 30.2702C177.057 28.2868 176.444 26.3704 175.554 24.6456C172.067 17.852 162.815 16.8458 156.896 21.2919C156.484 21.5985 156.082 22.001 155.699 22.4705C157.662 17.9957 161.158 15.3702 165.669 15.3702Z" fill="white"/>
<path d="M208.607 23.7538C205.762 23.7538 203.425 24.8174 201.548 25.6798C200.418 26.1972 199.431 26.6475 198.742 26.6475C197.995 26.6475 197.841 26.3697 197.841 25.8906C197.841 24.1562 201.107 23.0735 204.891 21.8182C211.298 19.691 219.267 17.0368 219.267 9.2083C219.267 3.27704 214.555 0 205.992 0C203.885 0 201.318 0.23955 198.837 0.4791C196.376 0.709068 193.838 0.948618 191.769 0.948618H185.812V2.38592H186.29C189.719 2.38592 190.169 4.84849 190.169 14.6126V35.6642C190.169 45.4379 189.71 47.8909 186.29 47.8909H185.812V49.3186H191.98C194.527 49.3186 196.587 49.539 198.77 49.7785C200.973 50.0181 203.243 50.2672 206.05 50.2672C216.049 50.2672 222.265 44.8342 222.265 36.0858C222.265 28.9472 216.518 23.7538 208.607 23.7538ZM195.15 2.82669C197.899 2.00264 200.475 1.61936 203.253 1.61936C208.569 1.61936 214.239 3.63158 214.239 9.29454C214.239 14.2963 208.885 16.8835 204.163 19.1736C200.178 21.0996 196.414 22.9202 196.414 25.9864C196.414 27.4333 197.487 28.0753 198.55 28.0753C199.929 28.0753 201.356 27.4524 202.86 26.8009C204.642 26.0247 206.481 25.2294 208.549 25.2294C214.181 25.2294 217.217 30.9882 217.217 36.4116C217.217 43.9526 211.902 48.6382 203.339 48.6382C200.217 48.6382 198.033 48.2741 195.14 47.2584V2.82669H195.15Z" fill="white"/>
<path d="M234.975 35.6638V0.948242H225.579V2.38554H226.058C229.487 2.38554 229.937 4.84812 229.937 14.6122V35.6638C229.937 45.4375 229.477 47.8905 226.058 47.8905H225.579V49.3182H239.333V47.8905H238.854C235.425 47.8905 234.975 45.4279 234.975 35.6638Z" fill="white"/>
<path d="M250.616 35.6645V14.7949H241.22V16.2226H241.699C245.128 16.2226 245.578 18.6852 245.578 28.4493V35.6549C245.578 45.4286 245.118 47.8816 241.699 47.8816H241.22V49.3093H254.974V47.8816H254.495C251.066 47.8912 250.616 45.4286 250.616 35.6645Z" fill="white"/>
<path d="M247.857 12.7152C249.869 12.7152 251.516 11.0767 251.516 9.05486C251.516 7.03305 249.878 5.39453 247.857 5.39453C245.846 5.39453 244.199 7.03305 244.199 9.05486C244.199 11.0767 245.846 12.7152 247.857 12.7152Z" fill="white"/>
<path d="M271.936 28.8233C266.706 27.2423 262.186 25.8721 262.186 21.6752C262.186 18.494 265.241 15.2744 271.093 15.2744C276.102 15.2744 279.981 18.2352 281.734 23.3904L281.849 23.7161H282.864V17.4303L282.701 17.2866C282.539 17.1429 278.727 13.8467 270.633 13.8467C264.59 13.8467 258.498 16.5488 258.498 22.5759C258.498 30.069 265.021 32.0046 270.777 33.7006C275.757 35.1762 280.058 36.4506 280.058 40.7338C280.058 45.9368 275.125 48.7443 270.241 48.8402C265.921 48.9456 263.095 46.7896 261.793 45.5056C260.145 43.8863 259.264 42.0369 259.264 41.1171V40.638H257.828V47.1633L258.048 47.307C261.161 49.3001 265.155 50.2775 270.25 50.2775C279.397 50.2775 284.857 46.483 284.857 40.1301C284.837 32.7232 277.98 30.6439 271.936 28.8233Z" fill="white"/>
<path d="M303.686 28.8233C298.457 27.2423 293.936 25.8721 293.936 21.6752C293.936 18.494 296.991 15.2744 302.844 15.2744C307.853 15.2744 311.732 18.2352 313.485 23.3904L313.6 23.7161H314.615V17.4303L314.452 17.2866C314.289 17.1429 310.477 13.8467 302.384 13.8467C296.34 13.8467 290.249 16.5488 290.249 22.5759C290.249 30.069 296.771 32.0046 302.527 33.7006C307.508 35.1762 311.808 36.4506 311.808 40.7338C311.808 45.9368 306.876 48.7443 301.991 48.8402C297.71 48.9456 294.846 46.7896 293.543 45.5056C291.896 43.8863 291.015 42.0369 291.015 41.1171V40.638H289.578V47.1633L289.798 47.307C292.911 49.3001 296.905 50.2775 302.001 50.2775C311.148 50.2775 316.607 46.483 316.607 40.1301C316.588 32.7232 309.74 30.6439 303.686 28.8233Z" fill="white"/>
<path d="M164.941 33.7199C165.497 37.8785 160.191 37.6006 157.471 37.0928C156.657 36.9394 155.766 38.8846 156.733 39.0667C159.769 39.632 163.447 39.747 165.43 36.9299C166.225 35.7992 166.694 34.2469 166.503 32.8575C166.321 31.5831 164.826 32.8863 164.941 33.7199Z" fill="white"/>
</svg>
