<svg width="45" height="40" viewBox="0 0 45 40" fill="none" xmlns="http://www.w3.org/2000/svg">
<path d="M0 13.8113C0 13.154 0 12.4957 0 11.8383C0.083215 11.7549 0.0604403 11.6428 0.0691998 11.5423C0.277675 9.08141 1.02135 6.8142 2.46404 4.82052C4.26061 2.33627 6.64844 0.812538 9.62578 0.245734C10.2985 0.117486 10.9853 0.161431 11.6501 0C11.7088 0 11.7666 0 11.8253 0C11.9278 0.127351 12.0697 0.0708504 12.1932 0.0726441C12.7196 0.0807157 13.2408 0.145288 13.7567 0.243044C16.7393 0.812538 19.0527 2.47797 20.9386 4.84384C21.4791 5.52185 21.9486 6.25277 22.4295 7.03303C22.9244 6.23304 23.3939 5.49674 23.9414 4.81873C25.9955 2.27439 28.513 0.549763 31.7855 0.135423C32.1972 0.0834062 32.6238 0.165916 33.0232 0C33.0819 0 33.1397 0 33.1984 0C33.3219 0.116589 33.4752 0.0744378 33.6162 0.0744378C34.2898 0.0735409 34.9573 0.157844 35.6055 0.319275C40.333 1.49145 43.1842 4.59631 44.4403 9.34239C44.6348 10.076 44.6549 10.8383 44.8485 11.5692C44.8485 12.3468 44.8485 13.1235 44.8485 13.901C44.8257 13.9539 44.788 14.006 44.7828 14.0607C44.5463 16.7306 43.5232 19.0964 42.0945 21.3C40.1692 24.2712 37.727 26.7707 35.185 29.1769C31.4894 32.6746 27.5818 35.9203 23.7723 39.2834C23.4412 39.5758 23.0952 39.8359 22.6862 40C22.511 40 22.3358 40 22.1606 40C21.889 39.8359 21.5938 39.7238 21.346 39.5058C18.0033 36.5651 14.5985 33.6979 11.3076 30.6953C8.59216 28.2182 5.94067 25.6739 3.72978 22.6955C2.13556 20.5484 0.856676 18.2364 0.30045 15.5647C0.179569 14.9844 0.098982 14.3961 0 13.8113Z" fill="#F8EEE4"/>
</svg>
