<svg width="26" height="27" viewBox="0 0 26 27" fill="none" xmlns="http://www.w3.org/2000/svg">
<path d="M12.1881 0C12.73 0 13.2713 0 13.8131 0C14.2476 0.0580078 14.6847 0.100723 15.1161 0.177187C17.5572 0.608555 19.72 1.66166 21.5735 3.36814C23.8462 5.46117 25.2667 8.06256 25.8004 11.1739C25.8844 11.6648 25.9342 12.1616 25.9999 12.6562C25.9999 13.2189 25.9999 13.7811 25.9999 14.3438C25.9607 14.6733 25.9261 15.004 25.8808 15.333C25.5099 18.0299 24.4664 20.4098 22.7213 22.4432C20.7188 24.7767 18.2298 26.2327 15.2637 26.7901C14.7834 26.8803 14.2965 26.9309 13.8126 27C13.2708 27 12.7295 27 12.1876 27C12.1128 26.9452 12.0253 26.9583 11.9424 26.9525C11.3929 26.9151 10.8495 26.8286 10.3128 26.7068C7.1553 25.988 4.57987 24.2963 2.63584 21.6232C0.492364 18.6754 -0.339486 15.3346 0.124518 11.6749C0.499487 8.71699 1.72716 6.16676 3.74395 4.04051C5.68748 1.99125 8.02887 0.706641 10.761 0.207246C11.2337 0.121289 11.7124 0.0685547 12.1881 0ZM21.6544 13.5042C21.661 8.55035 17.7841 4.51986 13.0052 4.51248C8.23543 4.5051 4.35347 8.53189 4.34634 13.4953C4.33871 18.447 8.21762 22.4796 12.9961 22.4875C17.7643 22.4954 21.6478 18.4665 21.6544 13.5042Z" fill="#073E0D"/>
<path d="M12.9747 15.3918C12.2385 15.3918 11.5023 15.3881 10.7666 15.395C10.6221 15.396 10.5631 15.3644 10.5493 15.1977C10.4562 14.0655 10.4562 12.9344 10.5493 11.8022C10.5631 11.635 10.6231 11.6049 10.7671 11.6055C12.2563 11.6102 13.7455 11.6102 15.2346 11.6055C15.3791 11.6049 15.4387 11.6355 15.4519 11.8027C15.5445 12.9349 15.5445 14.0661 15.4519 15.1983C15.4382 15.366 15.3781 15.396 15.2341 15.395C14.4811 15.3886 13.7276 15.3918 12.9747 15.3918Z" fill="#073E0D"/>
<path d="M13.0005 10.2171C12.3238 10.2171 11.6476 10.216 10.9709 10.2181C10.8407 10.2186 10.741 10.2266 10.7817 10.0251C10.972 9.08696 11.2106 8.16622 11.6278 7.30507C11.8186 6.91114 12.0409 6.53831 12.3538 6.23404C12.799 5.80109 13.2024 5.79792 13.6451 6.23456C14.1421 6.72447 14.424 7.35411 14.6687 8.00222C14.9129 8.64821 15.0737 9.32058 15.2121 9.99927C15.2513 10.1928 15.1938 10.2218 15.0295 10.2202C14.3538 10.2134 13.6771 10.2171 13.0005 10.2171Z" fill="#073E0D"/>
<path d="M13.0118 16.783C13.6798 16.783 14.3478 16.7867 15.0158 16.7804C15.1853 16.7788 15.2544 16.7988 15.2112 17.0119C15.0224 17.9416 14.7813 18.8523 14.3682 19.705C14.1774 20.0984 13.954 20.4707 13.6391 20.7734C13.199 21.1958 12.8047 21.1969 12.3666 20.7755C12.0196 20.4422 11.7825 20.0272 11.5795 19.5906C11.1908 18.7558 10.9634 17.8677 10.7818 16.9639C10.7452 16.7814 10.8337 16.7809 10.9578 16.7814C11.6421 16.7846 12.3269 16.783 13.0118 16.783Z" fill="#073E0D"/>
<path d="M7.54025 15.3914C7.06709 15.3914 6.59342 15.3856 6.12026 15.3946C5.96407 15.3978 5.90556 15.3477 5.87045 15.1842C5.6298 14.061 5.62878 12.9414 5.86943 11.8182C5.90352 11.6594 5.95593 11.6025 6.11568 11.6035C7.0793 11.6109 8.04293 11.6104 9.00604 11.6041C9.16122 11.603 9.21158 11.6484 9.19886 11.8134C9.11186 12.9351 9.11034 14.0583 9.19988 15.18C9.21515 15.373 9.1373 15.3951 8.98518 15.393C8.50388 15.3872 8.02207 15.3914 7.54025 15.3914Z" fill="#073E0D"/>
<path d="M18.4572 11.6081C18.939 11.6081 19.4209 11.6118 19.9027 11.606C20.0339 11.6044 20.0914 11.6424 20.123 11.7863C20.3728 12.9265 20.3748 14.0634 20.1245 15.203C20.095 15.3364 20.0548 15.3955 19.9133 15.3944C18.9329 15.3886 17.9525 15.3886 16.9721 15.3944C16.8149 15.3955 16.7915 15.3275 16.8022 15.1882C16.8541 14.5143 16.878 13.8388 16.8607 13.1627C16.85 12.7419 16.8434 12.3195 16.8022 11.9013C16.7762 11.6418 16.8663 11.5954 17.0891 11.6033C17.5445 11.6192 18.0009 11.6081 18.4572 11.6081Z" fill="#073E0D"/>
<path d="M15.4004 6.33203C16.1803 6.61574 16.8387 6.99385 17.4441 7.47637C18.2948 8.15453 18.9644 8.98985 19.4752 9.9686C19.5912 10.1911 19.5332 10.2233 19.32 10.2212C18.4917 10.2128 17.6634 10.2122 16.8356 10.2222C16.6652 10.2244 16.6031 10.1679 16.5741 9.99866C16.361 8.74094 16.0247 7.52436 15.4004 6.33203Z" fill="#073E0D"/>
<path d="M15.3926 20.6816C16.0316 19.4687 16.3643 18.2331 16.5831 16.9601C16.608 16.8156 16.6681 16.7798 16.8004 16.7803C17.6622 16.7856 18.5241 16.7834 19.3865 16.7824C19.503 16.7824 19.5966 16.7808 19.5101 16.9517C18.6167 18.723 17.2618 19.9449 15.3926 20.6816Z" fill="#073E0D"/>
<path d="M10.5803 6.36816C10.2811 6.94244 10.0471 7.52146 9.86441 8.12158C9.68125 8.72434 9.52963 9.33658 9.43449 9.96148C9.40752 10.1397 9.3541 10.2267 9.15059 10.223C8.31315 10.2088 7.47519 10.2151 6.63724 10.2188C6.48715 10.2194 6.40524 10.2088 6.50139 10.0211C7.39074 8.29086 8.70999 7.069 10.48 6.37818C10.5019 6.36975 10.5268 6.37291 10.5803 6.36816Z" fill="#073E0D"/>
<path d="M10.6059 20.679C8.74534 19.947 7.40064 18.7325 6.50367 16.9828C6.41464 16.8093 6.46806 16.7792 6.6329 16.7803C7.48765 16.7856 8.34188 16.7835 9.19663 16.7819C9.30245 16.7819 9.38487 16.7782 9.41133 16.9301C9.63163 18.212 9.96386 19.4582 10.6059 20.679Z" fill="#073E0D"/>
</svg>
