<svg width="45" height="39" viewBox="0 0 45 39" fill="none" xmlns="http://www.w3.org/2000/svg">
<path d="M0 13.4661C0 12.8251 0 12.1833 0 11.5423C0.083215 11.461 0.0604404 11.3517 0.0691999 11.2538C0.277675 8.85437 1.02135 6.64384 2.46404 4.70001C4.26061 2.27786 6.64844 0.792224 9.62579 0.239591C10.2985 0.114549 10.9853 0.157396 11.6501 0C11.7088 0 11.7666 0 11.8253 0C11.9278 0.124168 12.0697 0.0690792 12.1932 0.070828C12.7196 0.0786978 13.2408 0.141656 13.7568 0.236968C16.7394 0.792224 19.0527 2.41602 20.9386 4.72274C21.4791 5.3838 21.9486 6.09645 22.4295 6.8572C22.9244 6.07722 23.3939 5.35932 23.9414 4.69826C25.9955 2.21753 28.513 0.536019 31.7855 0.132037C32.1972 0.081321 32.6238 0.161768 33.0232 0C33.0819 0 33.1397 0 33.1984 0C33.3219 0.113675 33.4752 0.0725768 33.6162 0.0725768C34.2898 0.0717024 34.9573 0.153898 35.6055 0.311293C40.333 1.45416 43.1842 4.4814 44.4403 9.10883C44.6348 9.82411 44.6549 10.5674 44.8485 11.28C44.8485 12.0381 44.8485 12.7954 44.8485 13.5535C44.8257 13.6051 44.7881 13.6558 44.7828 13.7092C44.5463 16.3123 43.5232 18.619 42.0945 20.7675C40.1692 23.6644 37.7271 26.1014 35.1851 28.4475C31.4894 31.8577 27.5818 35.0223 23.7723 38.3013C23.4412 38.5864 23.0952 38.84 22.6862 39C22.511 39 22.3358 39 22.1606 39C21.8891 38.84 21.5939 38.7307 21.346 38.5182C18.0033 35.651 14.5985 32.8554 11.3076 29.9279C8.59217 27.5127 5.94068 25.032 3.72978 22.1281C2.13556 20.0347 0.856677 17.7805 0.30045 15.1756C0.179569 14.6098 0.0989821 14.0362 0 13.4661Z" fill="#F8EEE4"/>
</svg>
