<svg width="28" height="29" viewBox="0 0 28 29" fill="none" xmlns="http://www.w3.org/2000/svg">
<path d="M13.104 0C13.7015 0 14.2985 0 14.896 0C14.9677 0.0157248 15.0388 0.0409969 15.111 0.0466129C17.033 0.194314 18.8574 0.700879 20.5447 1.63314C24.5 3.81777 26.9231 7.13739 27.7794 11.5915C27.8779 12.1031 27.9272 12.6248 27.9994 13.1415C27.9994 13.7407 27.9994 14.3394 27.9994 14.9386C27.9121 15.2744 27.9216 15.6226 27.8723 15.9635C27.4641 18.7901 26.3278 21.2813 24.4222 23.4031C22.2718 25.7972 19.609 27.2922 16.4399 27.8605C15.9286 27.952 15.4106 28.0082 14.8954 28.0801C14.2979 28.0801 13.701 28.0801 13.1034 28.0801C13.0413 28.0644 12.9802 28.0396 12.9175 28.0352C10.7419 27.8712 8.70576 27.2439 6.84768 26.1021C3.2424 23.8866 1.02088 20.6911 0.22344 16.5173C0.12376 15.9961 0.07336 15.4654 0 14.9386C0 14.3394 0 13.7407 0 13.1415C0.07224 12.6242 0.13104 12.1048 0.21784 11.5903C1.17936 5.87435 5.8016 1.21924 11.503 0.226325C12.0338 0.133661 12.5703 0.074693 13.104 0ZM22.6475 14.3023C22.6475 13.005 22.6464 11.9571 22.6481 10.9091C22.6486 10.4969 22.633 10.0864 22.5691 9.67864C22.2874 7.88489 21.4094 6.54378 19.6728 5.86312C18.9526 5.5812 18.1972 5.46045 17.4283 5.45708C15.2359 5.44866 13.043 5.45596 10.8506 5.45259C10.383 5.45203 9.91816 5.48011 9.45784 5.56042C7.69552 5.86761 6.38624 6.76224 5.73272 8.48636C5.46504 9.19286 5.3536 9.9308 5.35304 10.685C5.35136 12.8652 5.35304 15.0453 5.35192 17.2254C5.35192 17.6281 5.36928 18.0297 5.43368 18.4278C5.70248 20.093 6.49152 21.3875 8.06904 22.108C8.84408 22.4618 9.67064 22.6157 10.5157 22.6202C12.8386 22.6337 15.162 22.6353 17.4854 22.6196C18.3876 22.6134 19.2674 22.4444 20.0833 22.0356C21.7577 21.196 22.4745 19.7375 22.6145 17.9533C22.7158 16.6571 22.6274 15.3536 22.6475 14.3023Z" fill="#073E0D"/>
<path d="M13.9999 7.07997C15.1479 7.07997 16.2954 7.07829 17.4434 7.0811C17.8174 7.08222 18.1887 7.12715 18.5527 7.21195C19.932 7.53543 20.8263 8.54912 21.0022 9.97052C21.0414 10.2873 21.0576 10.6034 21.0576 10.9219C21.0559 13.0559 21.0559 15.19 21.057 17.3241C21.0576 17.8615 20.9904 18.3889 20.8056 18.8943C20.3402 20.163 19.3955 20.8251 18.0857 20.9408C16.4578 21.0846 14.822 21.0256 13.1896 21.0211C12.1077 21.0183 11.0241 21.0526 9.9444 20.9498C8.29576 20.7925 7.18976 19.7008 6.99432 18.0525C6.96016 17.7633 6.94336 17.4752 6.94336 17.1848C6.94392 15.0227 6.94336 12.8605 6.94448 10.6984C6.94504 10.18 7.01784 9.67231 7.19648 9.18485C7.66184 7.91451 8.60936 7.27373 9.91584 7.13445C11.0498 7.0137 12.1911 7.08054 13.3285 7.05246C13.5525 7.04684 13.7765 7.05189 14.0005 7.05189C13.9999 7.06088 13.9999 7.07043 13.9999 7.07997ZM13.9932 9.47688C11.4553 9.48474 9.43704 11.5262 9.4488 14.0741C9.46056 16.5951 11.5034 18.6124 14.0352 18.6034C16.525 18.5944 18.5488 16.5592 18.551 14.0618C18.5533 11.511 16.5233 9.46901 13.9932 9.47688ZM18.5774 10.4063C19.0774 10.408 19.4851 10.0042 19.4874 9.50608C19.489 9.00513 19.0892 8.59629 18.5914 8.59011C18.0778 8.58394 17.6634 8.99446 17.6685 9.50552C17.6718 10.0104 18.0706 10.4046 18.5774 10.4063Z" fill="#073E0D"/>
<path d="M11.0641 14.0023C11.0977 12.3602 12.4215 11.0674 14.0377 11.0972C15.6751 11.1281 16.9682 12.4585 16.9346 14.0782C16.901 15.722 15.5783 17.0142 13.9621 16.9833C12.3275 16.9524 11.0311 15.6181 11.0641 14.0023Z" fill="#073E0D"/>
</svg>
