<svg width="21" height="15" viewBox="0 0 21 15" fill="none" xmlns="http://www.w3.org/2000/svg">
<path d="M1.94238 13.7527L6.80554 6.45801M14.1003 6.45801L18.9634 13.7527" stroke="#A56C50"/>
<rect x="1.22656" y="0.878906" width="18.4526" height="13.5895" rx="1.5" stroke="#A56C50"/>
<path d="M2.29594 1.24117C2.10067 1.04591 1.78409 1.04591 1.58883 1.24117C1.39357 1.43644 1.39357 1.75302 1.58883 1.94828L2.29594 1.24117ZM19.317 1.94828C19.5123 1.75302 19.5123 1.43644 19.317 1.24117C19.1217 1.04591 18.8051 1.04591 18.6099 1.24117L19.317 1.94828ZM11.8671 8.69104L11.5136 8.33749L11.8671 8.69104ZM1.58883 1.94828L8.68514 9.04459L9.39225 8.33749L2.29594 1.24117L1.58883 1.94828ZM12.2207 9.04459L19.317 1.94828L18.6099 1.24117L11.5136 8.33749L12.2207 9.04459ZM8.68514 9.04459C9.66145 10.0209 11.2444 10.0209 12.2207 9.04459L11.5136 8.33749C10.9278 8.92327 9.97804 8.92327 9.39225 8.33749L8.68514 9.04459Z" fill="#A56C50"/>
</svg>
