<svg width="81" height="84" viewBox="0 0 81 84" fill="none" xmlns="http://www.w3.org/2000/svg">
<g opacity="0.8">
<path d="M23.17 31.5525C29.2949 31.5525 34.2601 27.0048 34.2601 21.3949C34.2601 15.7851 29.2949 11.2373 23.17 11.2373C17.0452 11.2373 12.0801 15.7851 12.0801 21.3949C12.0801 27.0048 17.0452 31.5525 23.17 31.5525Z" stroke="#F8EEE4" stroke-width="7" stroke-miterlimit="10" stroke-linecap="round" stroke-linejoin="round"/>
<path d="M46.47 27.8066C43.7 37.6162 33.98 44.8612 22.41 44.8612C15.11 44.8612 8.54 41.976 4 37.3872" stroke="#F8EEE4" stroke-width="7" stroke-miterlimit="10" stroke-linecap="round" stroke-linejoin="round"/>
<path d="M28.04 30.4814C34.37 38.9721 37.6601 49.4319 36.6201 60.4688C35.9601 67.5673 33.5701 74.1436 29.8801 79.9048" stroke="#F8EEE4" stroke-width="7" stroke-miterlimit="10" stroke-linecap="round" stroke-linejoin="round"/>
<path d="M52.9904 29.4539C59.1152 29.4539 64.0804 24.9061 64.0804 19.2963C64.0804 13.6864 59.1152 9.13867 52.9904 9.13867C46.8655 9.13867 41.9004 13.6864 41.9004 19.2963C41.9004 24.9061 46.8655 29.4539 52.9904 29.4539Z" stroke="#F8EEE4" stroke-width="7" stroke-miterlimit="10" stroke-linecap="round" stroke-linejoin="round"/>
<path d="M69.3601 3.50586C74.1101 7.655 77.0801 13.5078 77.0801 19.9925C77.0801 32.559 65.9501 42.7532 52.2301 42.7532C47.0901 42.7532 42.3201 41.3244 38.3501 38.8789" stroke="#F8EEE4" stroke-width="7" stroke-miterlimit="10" stroke-linecap="round" stroke-linejoin="round"/>
<path d="M60.1299 27.4482C66.9099 35.316 70.9599 45.263 70.9599 56.0617C70.9599 63.1877 69.1999 69.9288 66.0599 75.9556" stroke="#F8EEE4" stroke-width="7" stroke-miterlimit="10" stroke-linecap="round" stroke-linejoin="round"/>
</g>
</svg>
