<svg width="16" height="17" viewBox="0 0 16 17" fill="none" xmlns="http://www.w3.org/2000/svg">
<path d="M8.32368 16.4725C8.06133 16.4202 7.79105 16.4141 7.52871 16.3551C5.68506 15.9411 4.38954 14.4483 4.44612 12.7951C4.50594 11.0432 5.87282 9.61775 7.79105 9.31567C8.87684 9.14474 9.8765 9.34806 10.789 9.89547C10.8679 9.94293 10.9201 9.97917 11.0131 9.89579C11.9854 9.02288 12.9638 8.15542 13.9404 7.28635C13.9598 7.26903 13.9764 7.24851 14.0175 7.20458C13.851 7.20458 13.7159 7.20458 13.5807 7.20458C13.2265 7.20425 12.8719 7.21035 12.518 7.20201C12.2056 7.19463 11.9641 6.96342 11.9645 6.69083C11.9648 6.41632 12.2045 6.18318 12.5184 6.18126C13.491 6.17517 14.464 6.17709 15.4366 6.17998C15.7278 6.18094 15.8846 6.35122 15.9999 6.5632C15.9999 7.50378 15.9999 8.44468 15.9999 9.38526C15.9891 9.39744 15.975 9.40803 15.9682 9.42181C15.8305 9.68478 15.5837 9.81241 15.3112 9.76078C15.0247 9.70626 14.8485 9.4975 14.8471 9.20792C14.8456 8.94078 14.8467 8.67365 14.8467 8.40619C14.8467 8.26028 14.8467 8.11437 14.8467 7.96846C14.8276 7.95948 14.8081 7.95082 14.789 7.94184C14.7505 7.9893 14.7188 8.04221 14.673 8.08326C13.7443 8.91192 12.816 9.7409 11.8812 10.5641C11.7688 10.6632 11.7479 10.7209 11.8452 10.8489C13.3894 12.8824 12.2402 15.6566 9.58569 16.3256C9.26604 16.4061 8.93703 16.425 8.61233 16.4721C8.51612 16.4725 8.4199 16.4725 8.32368 16.4725ZM11.3868 12.85C11.3821 11.4341 10.0927 10.2822 8.51467 10.2838C6.90599 10.2854 5.61984 11.4329 5.62164 12.8641C5.62344 14.2748 6.92941 15.4196 8.53017 15.4142C10.1003 15.4084 11.3915 14.2495 11.3868 12.85Z" fill="#A56C50"/>
<path d="M8.22907 0.000341968C8.53205 0.053005 8.84162 0.063264 9.14382 0.129948C11.1196 0.565614 12.5336 2.2033 12.4401 3.95691C12.3384 5.86201 10.8108 7.38787 8.72679 7.65289C7.60567 7.79549 6.56834 7.58382 5.63148 7.0206C5.49842 6.94057 5.43596 6.95699 5.33199 7.05C4.66048 7.6505 3.98393 8.24689 3.30311 8.83952C3.20031 8.92878 3.17858 8.9811 3.2969 9.07719C3.54828 9.28203 3.7857 9.5002 4.02583 9.71564C4.29466 9.95707 4.30669 10.2864 4.05958 10.509C3.80703 10.7364 3.42608 10.7275 3.14561 10.4844C2.89694 10.2686 2.6475 10.0532 2.40698 9.8302C2.31931 9.74881 2.26849 9.7495 2.17966 9.82986C1.82819 10.1486 1.46935 10.4608 1.11168 10.774C0.8184 11.0309 0.44327 11.0507 0.183355 10.8257C-0.0812151 10.5966 -0.0575512 10.2614 0.241933 9.99537C0.283053 9.95912 0.324174 9.92288 0.365295 9.88663C0.680684 9.60861 0.99297 9.32785 1.31379 9.05462C1.40069 8.98075 1.39991 8.93938 1.3134 8.86654C1.06086 8.65417 0.816461 8.43429 0.571675 8.21509C0.294303 7.96682 0.283829 7.6334 0.542968 7.40941C0.796676 7.18987 1.16793 7.20013 1.44336 7.43848C1.68776 7.65016 1.93487 7.85978 2.16763 8.08138C2.2716 8.18021 2.32552 8.16413 2.42328 8.07693C3.10449 7.46891 3.78957 6.86397 4.48048 6.26416C4.5829 6.17525 4.57397 6.12293 4.49833 6.02581C2.87289 3.934 3.93815 1.07138 6.65252 0.230144C7.01407 0.118321 7.38493 0.0478755 7.76821 0.0276994C7.83183 0.0242797 7.89468 0.00957509 7.95752 0C8.0483 0.000341968 8.13869 0.000341968 8.22907 0.000341968ZM11.1762 3.87244C11.1816 2.3606 9.79438 1.13465 8.07274 1.12918C6.37902 1.12405 4.97704 2.34863 4.97083 3.83893C4.96462 5.35282 6.34023 6.59245 8.03511 6.59998C9.77188 6.60716 11.1708 5.39249 11.1762 3.87244Z" fill="#A56C50"/>
</svg>
