<svg width="20" height="16" viewBox="0 0 20 16" fill="none" xmlns="http://www.w3.org/2000/svg">
<path d="M16.5649 0.600967C16.6083 0.624585 16.6513 0.648585 16.6951 0.672204C17.0396 0.859248 17.1264 1.29505 16.8778 1.59752C16.8416 1.64133 16.8001 1.68095 16.7598 1.72133C12.3588 6.12277 7.95791 10.5234 3.55774 14.9256C3.42984 15.0536 3.29699 15.1656 3.10893 15.1866C2.85579 15.2148 2.61216 15.083 2.49796 14.8548C2.37652 14.6121 2.41878 14.3493 2.62472 14.1409C3.13292 13.6281 3.64454 13.1192 4.15502 12.6087C4.31147 12.4522 4.31033 12.4541 4.11619 12.3299C2.50177 11.2956 1.19112 9.96002 0.165972 8.34215C0.105826 8.2473 0.0551972 8.14635 0 8.04806C0 7.94673 0 7.8454 0 7.74407C0.0586232 7.64045 0.113059 7.53455 0.17587 7.43398C1.04266 6.05115 2.12109 4.85689 3.45078 3.9129C6.69333 1.61161 10.1696 1.1781 13.8663 2.68626C13.9889 2.73616 14.0551 2.71255 14.1419 2.62455C14.7015 2.05694 15.2687 1.49695 15.8298 0.930484C15.9592 0.79982 16.0928 0.679061 16.2607 0.600586C16.3624 0.600967 16.4636 0.600967 16.5649 0.600967ZM13.0631 3.69653C13.0452 3.68053 13.0372 3.66948 13.0262 3.66415C13.0037 3.6531 12.9797 3.64472 12.9565 3.63596C11.2027 2.96625 9.40789 2.83902 7.58866 3.29349C4.92131 3.959 2.94334 5.59211 1.38716 7.79778C1.33349 7.87397 1.34148 7.92502 1.39211 7.9974C2.38262 9.42023 3.60837 10.5909 5.10098 11.4792C5.2011 11.5387 5.24982 11.5181 5.32253 11.4446C5.74926 11.0118 6.17637 10.5791 6.61338 10.157C6.73063 10.0435 6.73292 9.97107 6.64803 9.83088C5.9278 8.64234 5.8608 7.40693 6.51631 6.1841C7.17449 4.95631 8.24227 4.31366 9.63781 4.25347C10.3923 4.22109 11.087 4.43594 11.7197 4.84965C11.773 4.88431 11.8213 4.94526 11.8978 4.86755C12.2827 4.47556 12.6725 4.08776 13.0631 3.69653ZM7.64348 9.10366C7.66251 9.09185 7.67469 9.08652 7.68345 9.07814C8.74362 8.01911 9.80264 6.95856 10.8651 5.90182C10.99 5.77763 10.8697 5.76392 10.8011 5.72811C9.8822 5.2504 8.7459 5.43554 8.00435 6.18181C7.2236 6.96808 7.06181 8.24006 7.64348 9.10366Z" fill="#A56C50"/>
<path d="M6.6875 13.4991C7.00841 13.1829 7.31104 12.8869 7.61024 12.5871C7.66811 12.5292 7.72787 12.5235 7.79982 12.5387C10.8707 13.1841 13.5521 12.3597 15.9218 10.3769C16.7319 9.69917 17.4258 8.91251 18.0307 8.04663C18.1065 7.93844 18.1141 7.86453 18.0341 7.75139C17.3063 6.72017 16.4532 5.80895 15.446 5.0463C15.3143 4.94649 15.2865 4.89278 15.4227 4.77088C15.6489 4.56859 15.8582 4.34726 16.0687 4.12822C16.1392 4.0547 16.1871 4.04594 16.2716 4.11222C17.497 5.07677 18.5302 6.21275 19.3436 7.5453C19.486 7.77882 19.4913 8.01234 19.3444 8.24281C17.5454 11.0637 15.127 13.0496 11.7969 13.7665C10.1154 14.1284 8.43896 14.0309 6.78685 13.5467C6.76325 13.5402 6.74194 13.5258 6.6875 13.4991Z" fill="#A56C50"/>
<path d="M8.77539 11.4244C9.16063 11.04 9.50819 10.6922 9.85688 10.3456C9.90028 10.3025 9.95928 10.3014 10.016 10.2941C11.1386 10.1528 11.9761 9.3136 12.1242 8.18181C12.1318 8.12505 12.1348 8.06677 12.1778 8.02334C12.5231 7.67363 12.8691 7.32469 13.2468 6.94336C13.5467 8.24848 13.2959 9.37988 12.4272 10.3326C11.4546 11.4 10.2322 11.7349 8.77539 11.4244Z" fill="#A56C50"/>
</svg>
