<svg width="20" height="13" viewBox="0 0 20 13" fill="none" xmlns="http://www.w3.org/2000/svg">
<path d="M9.08043 0.0371094C9.51089 0.0371094 9.94174 0.0371094 10.3722 0.0371094C10.4212 0.0754827 10.4805 0.0667442 10.5363 0.0701637C11.1442 0.110817 11.7445 0.203141 12.3308 0.365752C15.4827 1.24074 17.7843 3.20006 19.4526 5.96408C19.4526 6.06553 19.4526 6.16659 19.4526 6.26803C19.3907 6.37669 19.3322 6.48763 19.2661 6.59363C18.5415 7.75167 17.6487 8.7642 16.5993 9.63653C15.0906 10.8903 13.3881 11.736 11.4402 12.0518C11.0861 12.1091 10.7286 12.1475 10.3726 12.195C9.94212 12.195 9.51127 12.195 9.08081 12.195C9.03218 12.1551 8.97253 12.1654 8.91706 12.1616C8.15643 12.1095 7.40986 11.9762 6.68532 11.741C3.74539 10.7873 1.57407 8.89148 0 6.26803C0 6.16659 0 6.06553 0 5.96408C0.0585099 5.86074 0.11322 5.75474 0.176289 5.65406C0.976051 4.37406 1.97452 3.27225 3.16371 2.34521C4.60062 1.22516 6.20547 0.472514 8.01243 0.179585C8.36691 0.122215 8.72443 0.0842212 9.08043 0.0371094ZM9.49228 10.9792C10.8167 10.9792 11.8243 10.812 12.9007 10.4021C15.0803 9.57194 16.7452 8.10007 18.0697 6.21028C18.143 6.10542 18.0841 6.04957 18.0355 5.97966C17.1267 4.67687 16.0279 3.5648 14.6772 2.72286C12.1617 1.1545 9.4843 0.806476 6.67886 1.79013C4.43687 2.57621 2.74502 4.08455 1.3936 6.0055C1.31761 6.1134 1.36092 6.17343 1.41601 6.25321C2.06 7.17835 2.81151 8.00547 3.68384 8.72013C5.44066 10.1597 7.43569 10.9655 9.49228 10.9792Z" fill="#A56C50"/>
<path d="M13.3735 6.11042C13.3757 8.12028 11.7401 9.76121 9.73179 9.76349C7.72194 9.76577 6.081 8.12977 6.0791 6.12144C6.0772 4.11083 7.71206 2.47103 9.72077 2.46875C11.731 2.46685 13.3708 4.10133 13.3735 6.11042ZM9.73445 8.54732C11.0688 8.54428 12.1584 7.44893 12.1573 6.11194C12.1562 4.77723 11.0627 3.68492 9.72685 3.68454C8.38378 3.68454 7.28995 4.78331 7.29451 6.12904C7.29945 7.46185 8.39784 8.55074 9.73445 8.54732Z" fill="#A56C50"/>
</svg>
