<svg width="375" height="812" viewBox="0 0 375 812" fill="none" xmlns="http://www.w3.org/2000/svg">
<g clip-path="url(#clip0_4_8)">
<rect width="375" height="812" fill="#B99173"/>
<path d="M453.997 -454.392H-725.979V1641.95H453.997V-454.392Z" fill="#B99173"/>
<path d="M-269.847 -457.216C-269.847 -457.216 -291.856 -475.459 -281.73 -335.954C-271.604 -196.449 -177.102 -122.199 -64.5856 17.3061C47.9306 156.811 115.424 272.696 242.543 265.938C369.683 259.18 454.06 209.68 454.06 209.68L451.633 -457.32L-269.847 -457.216Z" fill="#A56C50"/>
<path d="M497.238 858.187C497.238 858.187 513.929 858.462 442.477 797.485C371.026 736.509 301.346 737.225 193.529 714.362C85.7112 691.498 5.37368 662.838 -36.4888 713.292C-78.3587 763.753 -84.2502 818.134 -84.2502 818.134L241.039 1126.79L497.238 858.187Z" fill="#A56C50"/>
</g>
<defs>
<clipPath id="clip0_4_8">
<rect width="375" height="812" fill="white"/>
</clipPath>
</defs>
</svg>
