<svg width="85" height="85" viewBox="0 0 85 85" fill="none" xmlns="http://www.w3.org/2000/svg">
<path d="M6.49994 3.58008H77.4999" stroke="#073E0D" stroke-width="7" stroke-miterlimit="10" stroke-linecap="round" stroke-linejoin="round"/>
<path d="M5.99994 3.58008V23.23" stroke="#073E0D" stroke-width="7" stroke-miterlimit="10" stroke-linecap="round" stroke-linejoin="round"/>
<path d="M77.9999 3.58008V23.23" stroke="#073E0D" stroke-width="7" stroke-miterlimit="10" stroke-linecap="round" stroke-linejoin="round"/>
<path d="M42.9999 3.58008V23.23" stroke="#073E0D" stroke-width="7" stroke-miterlimit="10" stroke-linecap="round" stroke-linejoin="round"/>
<path d="M13.9299 18.73L19.39 22.12C27.5 27.16 32.4299 36.0301 32.4299 45.5801V80.73" stroke="#073E0D" stroke-width="7" stroke-miterlimit="10" stroke-linecap="round" stroke-linejoin="round"/>
<path d="M11.4299 50.73L28.6099 33.5601" stroke="#073E0D" stroke-width="7" stroke-miterlimit="10" stroke-linecap="round" stroke-linejoin="round"/>
<path d="M13.4299 70.73L30.6099 53.5601" stroke="#073E0D" stroke-width="7" stroke-miterlimit="10" stroke-linecap="round" stroke-linejoin="round"/>
<path d="M50.9299 18.73L56.39 22.12C64.5 27.16 69.4299 36.0301 69.4299 45.5801V80.73" stroke="#073E0D" stroke-width="7" stroke-miterlimit="10" stroke-linecap="round" stroke-linejoin="round"/>
<path d="M48.4299 50.73L65.6099 33.5601" stroke="#073E0D" stroke-width="7" stroke-miterlimit="10" stroke-linecap="round" stroke-linejoin="round"/>
<path d="M50.4299 70.73L67.6099 53.5601" stroke="#073E0D" stroke-width="7" stroke-miterlimit="10" stroke-linecap="round" stroke-linejoin="round"/>
<path d="M42.7699 83.5C45.1668 83.5 47.1099 81.557 47.1099 79.16C47.1099 76.7631 45.1668 74.8201 42.7699 74.8201C40.373 74.8201 38.4299 76.7631 38.4299 79.16C38.4299 81.557 40.373 83.5 42.7699 83.5Z" fill="#073E0D"/>
<path d="M4.76993 83.5C7.16684 83.5 9.10992 81.557 9.10992 79.16C9.10992 76.7631 7.16684 74.8201 4.76993 74.8201C2.37301 74.8201 0.429932 76.7631 0.429932 79.16C0.429932 81.557 2.37301 83.5 4.76993 83.5Z" fill="#073E0D"/>
<path d="M79.7699 83.5C82.1668 83.5 84.1099 81.557 84.1099 79.16C84.1099 76.7631 82.1668 74.8201 79.7699 74.8201C77.373 74.8201 75.4299 76.7631 75.4299 79.16C75.4299 81.557 77.373 83.5 79.7699 83.5Z" fill="#073E0D"/>
</svg>
