<svg width="12" height="12" viewBox="0 0 12 12" fill="none" xmlns="http://www.w3.org/2000/svg">
<path d="M1.70711 0.292893C1.31658 -0.0976311 0.683418 -0.0976311 0.292893 0.292893C-0.0976311 0.683418 -0.0976311 1.31658 0.292893 1.70711L1.70711 0.292893ZM10.2929 11.7071C10.6834 12.0976 11.3166 12.0976 11.7071 11.7071C12.0976 11.3166 12.0976 10.6834 11.7071 10.2929L10.2929 11.7071ZM0.292893 1.70711L10.2929 11.7071L11.7071 10.2929L1.70711 0.292893L0.292893 1.70711Z" fill="#A56C50"/>
<path d="M11.7071 1.70711C12.0976 1.31658 12.0976 0.683418 11.7071 0.292893C11.3166 -0.097631 10.6834 -0.0976311 10.2929 0.292893L11.7071 1.70711ZM0.292899 10.2929C-0.0976246 10.6834 -0.097625 11.3166 0.292899 11.7071C0.683424 12.0976 1.31659 12.0976 1.70711 11.7071L0.292899 10.2929ZM10.2929 0.292893L0.292899 10.2929L1.70711 11.7071L11.7071 1.70711L10.2929 0.292893Z" fill="#A56C50"/>
</svg>
