<svg width="88" height="97" viewBox="0 0 88 97" fill="none" xmlns="http://www.w3.org/2000/svg">
<path d="M51.6401 23.5001C50.5201 31.2301 44.4801 37.0301 37.1601 38.1901" stroke="#073E0D" stroke-width="7" stroke-miterlimit="10" stroke-linecap="round" stroke-linejoin="round"/>
<path d="M19.7801 30.42C17.5901 27.02 16.5701 22.84 17.2001 18.52C18.5801 9.00004 27.4001 2.41004 36.9101 3.79004C46.4201 5.17004 53.0101 14 51.6401 23.51" stroke="#073E0D" stroke-width="7" stroke-miterlimit="10" stroke-linecap="round" stroke-linejoin="round"/>
<path d="M46.4701 36.72C54.5301 28.72 67.5201 28.18 76.2301 35.75C85.3601 43.68 86.3401 57.51 78.4101 66.64C74.6901 70.92 69.6801 73.41 64.4701 74.03" stroke="#073E0D" stroke-width="7" stroke-miterlimit="10" stroke-linecap="round" stroke-linejoin="round"/>
<path d="M22.5401 40.5101C22.3601 50.4001 14.2101 58.2701 4.32007 58.1001" stroke="#073E0D" stroke-width="7" stroke-miterlimit="10" stroke-linecap="round" stroke-linejoin="round"/>
<path d="M31.0601 52.89C30.8801 62.78 22.7301 70.65 12.8401 70.48" stroke="#073E0D" stroke-width="7" stroke-miterlimit="10" stroke-linecap="round" stroke-linejoin="round"/>
<path d="M42.2101 64.45C42.0301 74.34 33.8801 82.21 23.9901 82.04" stroke="#073E0D" stroke-width="7" stroke-miterlimit="10" stroke-linecap="round" stroke-linejoin="round"/>
<path d="M38.2601 38.03C53.4501 38.03 65.7601 50.34 65.7601 65.53C65.7601 80.72 53.4501 93.03 38.2601 93.03" stroke="#073E0D" stroke-width="7" stroke-miterlimit="10" stroke-linecap="round" stroke-linejoin="round"/>
</svg>
