<svg width="82" height="81" viewBox="0 0 82 81" fill="none" xmlns="http://www.w3.org/2000/svg">
<path d="M76.7 29.8897C77.52 32.9697 77.96 36.2097 77.96 39.5497C77.96 60.1097 61.29 76.7797 40.73 76.7797C20.17 76.7797 3.5 60.1097 3.5 39.5497C3.5 35.8897 4.03002 32.3497 5.02002 28.9997" stroke="#073E0D" stroke-width="7" stroke-miterlimit="10" stroke-linecap="round" stroke-linejoin="round"/>
<path d="M25.77 53.1297C15.62 48.6697 7.83998 39.7997 4.84998 28.9497" stroke="#073E0D" stroke-width="7" stroke-miterlimit="10" stroke-linecap="round" stroke-linejoin="round"/>
<path d="M76.5 29.4297C73.41 40.0897 65.68 48.7697 55.64 53.1597" stroke="#073E0D" stroke-width="7" stroke-miterlimit="10" stroke-linecap="round" stroke-linejoin="round"/>
<path d="M24.46 73.1897C24.46 73.1897 26.31 18.2697 40.74 4.21973" stroke="#073E0D" stroke-width="7" stroke-miterlimit="10" stroke-linecap="round" stroke-linejoin="round"/>
<path d="M57.02 73.1897C57.02 73.1897 55.17 18.2697 40.74 4.21973" stroke="#073E0D" stroke-width="7" stroke-miterlimit="10" stroke-linecap="round" stroke-linejoin="round"/>
</svg>
