<svg width="81" height="93" viewBox="0 0 81 93" fill="none" xmlns="http://www.w3.org/2000/svg">
<path d="M22.0501 5.70004C26.0401 4.46004 30.2901 3.79004 34.6901 3.79004C58.1601 3.79004 77.1901 22.82 77.1901 46.29C77.1901 69.76 58.1601 88.79 34.6901 88.79C22.5601 88.79 11.6201 83.7101 3.87012 75.5601" stroke="#073E0D" stroke-width="7" stroke-miterlimit="10" stroke-linecap="round" stroke-linejoin="round"/>
<path d="M22.4801 6.00003C29.7301 13.62 34.1901 23.94 34.1901 35.29C34.1901 54.36 21.6301 70.5001 4.33011 75.8801" stroke="#073E0D" stroke-width="7" stroke-miterlimit="10" stroke-linecap="round" stroke-linejoin="round"/>
<path d="M51.9701 54.9301C54.5769 54.9301 56.6901 52.8168 56.6901 50.21C56.6901 47.6032 54.5769 45.4901 51.9701 45.4901C49.3633 45.4901 47.2501 47.6032 47.2501 50.21C47.2501 52.8168 49.3633 54.9301 51.9701 54.9301Z" fill="#073E0D"/>
</svg>
