<svg width="30" height="30" viewBox="0 0 30 30" fill="none" xmlns="http://www.w3.org/2000/svg">
<circle cx="15" cy="15" r="14" stroke="#073E0D" stroke-width="2"/>
<path d="M10.7071 9.29289C10.3166 8.90237 9.68342 8.90237 9.29289 9.29289C8.90237 9.68342 8.90237 10.3166 9.29289 10.7071L10.7071 9.29289ZM19.2929 20.7071C19.6834 21.0976 20.3166 21.0976 20.7071 20.7071C21.0976 20.3166 21.0976 19.6834 20.7071 19.2929L19.2929 20.7071ZM9.29289 10.7071L19.2929 20.7071L20.7071 19.2929L10.7071 9.29289L9.29289 10.7071Z" fill="#073E0D"/>
<path d="M20.7071 10.7071C21.0976 10.3166 21.0976 9.68342 20.7071 9.29289C20.3166 8.90237 19.6834 8.90237 19.2929 9.29289L20.7071 10.7071ZM9.2929 19.2929C8.90238 19.6834 8.90237 20.3166 9.2929 20.7071C9.68342 21.0976 10.3166 21.0976 10.7071 20.7071L9.2929 19.2929ZM19.2929 9.29289L9.2929 19.2929L10.7071 20.7071L20.7071 10.7071L19.2929 9.29289Z" fill="#073E0D"/>
</svg>
