<svg width="95" height="88" viewBox="0 0 95 88" fill="none" xmlns="http://www.w3.org/2000/svg">
<path d="M72.9101 32.5397C80.3801 40.0097 78.8601 52.4997 69.8201 57.9597L61.2501 63.1397C58.7601 64.6497 57.2301 67.3497 57.2301 70.2597C57.2301 76.8597 64.5401 80.8397 70.0801 77.2497L91.2301 63.5597" stroke="#073E0D" stroke-width="7" stroke-miterlimit="10" stroke-linecap="round" stroke-linejoin="round"/>
<path d="M73.2001 31.7797C62.6701 43.6197 47.3201 51.0697 30.2301 51.0697C20.9101 51.0697 12.1201 48.8497 4.33008 44.9197" stroke="#073E0D" stroke-width="7" stroke-miterlimit="10" stroke-linecap="round" stroke-linejoin="round"/>
<path d="M72.9101 32.5397L44.0901 3.71973" stroke="#073E0D" stroke-width="7" stroke-miterlimit="10" stroke-linecap="round" stroke-linejoin="round"/>
<path d="M26.2301 37.0697C33.6859 37.0697 39.7301 31.0255 39.7301 23.5697C39.7301 16.1139 33.6859 10.0697 26.2301 10.0697C18.7742 10.0697 12.7301 16.1139 12.7301 23.5697C12.7301 31.0255 18.7742 37.0697 26.2301 37.0697Z" stroke="#073E0D" stroke-width="7" stroke-miterlimit="10" stroke-linecap="round" stroke-linejoin="round"/>
<path d="M62.7301 35.5697C70.1859 35.5697 76.2301 29.5255 76.2301 22.0697C76.2301 14.6139 70.1859 8.5697 62.7301 8.5697C55.2742 8.5697 49.2301 14.6139 49.2301 22.0697C49.2301 29.5255 55.2742 35.5697 62.7301 35.5697Z" stroke="#073E0D" stroke-width="7" stroke-miterlimit="10" stroke-linecap="round" stroke-linejoin="round"/>
<path d="M30.7501 38.0097C34.5501 44.6597 36.7301 52.3597 36.7301 60.5697C36.7301 69.0997 34.3801 77.0897 30.2901 83.9097" stroke="#073E0D" stroke-width="7" stroke-miterlimit="10" stroke-linecap="round" stroke-linejoin="round"/>
</svg>
