<svg width="93" height="93" viewBox="0 0 93 93" fill="none" xmlns="http://www.w3.org/2000/svg">
<path d="M46.5 92.5C21.1 92.5 0.5 71.9 0.5 46.5C0.5 21.1 21.1 0.5 46.5 0.5C71.9 0.5 92.5 21.1 92.5 46.5C92.5 71.9 71.9 92.5 46.5 92.5ZM46.5 7.5C25 7.5 7.5 25 7.5 46.5C7.5 68 25 85.5 46.5 85.5C68 85.5 85.5 68 85.5 46.5C85.5 25 68 7.5 46.5 7.5Z" fill="#073E0D"/>
<path d="M52.7 49C52.1 49.6 51.2 50 50.2 50H42.9C41 50 39.4 48.4 39.4 46.5C39.4 44.6 41 43 42.9 43H50.2C52.1 43 53.7 44.6 53.7 46.5C53.7 47.5 53.3 48.3 52.7 49Z" fill="#073E0D"/>
</svg>
